<?xml version="1.0" standalone="no"?>
<!DOCTYPE svg PUBLIC "-//W3C//DTD SVG 1.1//EN" "http://www.w3.org/Graphics/SVG/1.1/DTD/svg11.dtd" >
<svg xmlns="http://www.w3.org/2000/svg">
<metadata>
Created by FontForge 20120731 at Thu Oct 13 12:28:44 2016
 By admin
</metadata>
<defs>
<font id="webim" horiz-adv-x="1024" >
  <font-face 
    font-family="webim"
    font-weight="500"
    font-stretch="normal"
    units-per-em="1024"
    panose-1="2 0 6 3 0 0 0 0 0 0"
    ascent="896"
    descent="-128"
    x-height="699"
    cap-height="873"
    bbox="0 -128 1024 896"
    underline-thickness="50"
    underline-position="-100"
    unicode-range="U+0041-007A"
  />
<missing-glyph horiz-adv-x="374" 
d="M34 0v682h272v-682h-272zM68 34h204v614h-204v-614z" />
    <glyph glyph-name=".notdef" horiz-adv-x="374" 
d="M34 0v682h272v-682h-272zM68 34h204v614h-204v-614z" />
    <glyph glyph-name=".null" horiz-adv-x="0" 
 />
    <glyph glyph-name="nonmarkingreturn" horiz-adv-x="341" 
 />
    <glyph glyph-name="A" unicode="A" 
d="M855 636q8 9 8 21t-8 20l-50 50q-8 8 -20 8t-21 -8l-231 -232q-9 -9 -21 -9t-21 9l-231 232q-9 8 -21 8t-20 -8l-50 -50q-8 -8 -8 -20t8 -21l232 -231q9 -9 9 -21t-9 -21l-232 -231q-8 -9 -8 -21t8 -20l50 -50q8 -8 20 -8t21 8l231 232q9 9 21 9t21 -9l231 -232
q9 -8 21 -8t20 8l50 50q8 8 8 20t-8 21l-232 231q-9 9 -9 21t9 21z" />
    <glyph glyph-name="B" unicode="B" 
d="M908 75h-792v618h792v-618zM215 174h594v420h-594v-420z" />
    <glyph glyph-name="C" unicode="C" 
d="M143 226h738v-158h-738v158z" />
    <glyph glyph-name="D" unicode="D" 
d="M218 551l294 -334l294 334h-588z" />
    <glyph glyph-name="E" unicode="E" 
d="M512 722q101 0 186 -40.5t134.5 -110.5t49.5 -152t-49.5 -151.5t-134.5 -110t-186 -40.5l-49 3q-54 -45 -115 -59q-39 -9 -87 -12.5t-76 -2.5l-28 1l62 55q72 69 58 85q-34 34 -52 54.5t-40 51.5t-32 62t-10 64q0 82 49.5 152t134.5 110.5t185 40.5v0zM512 722z" />
    <glyph glyph-name="F" unicode="F" 
d="M728 335h-2h-4q-2 0 -4.5 1t-4 2.5t-2.5 5.5t-1 9t1.5 13t4.5 18q36 51 53 88t17 81q0 72 -41 111.5t-103 39.5q-15 0 -39 -6q51 -47 51 -125q0 -119 -61 -200q-12 -16 -10 -36t16 -24q71 -19 126 -61.5t72 -90.5l2 -18q0 -11 -7 -22t-19.5 -23.5t-14.5 -15.5
q148 15 148 83v20q0 38 -55.5 82.5t-122.5 67.5zM531 282q-2 1 -4.5 2.5t-7 6.5t-6.5 11.5t-1.5 18.5t5.5 27h-1q35 35 57 86.5t22 104.5q0 79 -46 124t-114 45t-113.5 -45t-45.5 -124q0 -53 21.5 -105t56.5 -87q5 -18 5 -29t-6.5 -19.5t-10.5 -11.5t-8 -5q-78 -28 -137 -69
t-59 -81v-22q0 -98 298 -98q295 0 295 98v22q0 42 -59.5 83t-140.5 67zM531 282z" />
    <glyph glyph-name="G" unicode="G" 
d="M859 108l-147 147q55 79 55 174q0 125 -88 213.5t-212.5 88.5t-213 -88.5t-88.5 -213t88.5 -213t212.5 -88.5q96 0 175 56l147 -147zM266 429.5q0 83.5 58.5 142t141.5 58.5t142 -58.5t59 -142t-59 -142t-142 -58.5t-141.5 58.5t-58.5 142z" />
    <glyph glyph-name="H" unicode="H" 
d="M172 671q153 -85 319 -85t306.5 77t225.5 210v-973q-8 0 -26.5 -2.5t-26.5 -2.5q-161 0 -307 61t-252 165t-170.5 247.5t-68.5 302.5z" />
    <glyph glyph-name="I" unicode="I" 
d="M54 -105q-37 0 -53 5v973q86 -130 227 -208.5t305 -78.5q166 0 319 85q-4 -159 -68.5 -302.5t-170.5 -247.5t-252 -165t-307 -61z" />
    <glyph glyph-name="J" unicode="J" 
d="M512 752q-100 0 -184.5 -49.5t-134 -134.5t-49.5 -184.5t49.5 -184t134 -134t184.5 -49.5t184.5 49.5t134 134t49.5 184t-49.5 184.5t-134 134.5t-184.5 49.5zM641 531q22 0 38.5 -16.5t16.5 -38.5t-16.5 -38.5t-38.5 -16.5t-38.5 16.5t-16.5 38.5t16.5 38.5t38.5 16.5z
M383 531q22 0 38.5 -16.5t16.5 -38.5t-16.5 -38.5t-38.5 -16.5t-38.5 16.5t-16.5 38.5t16.5 38.5t38.5 16.5zM512 163q-71 0 -127.5 41.5t-78.5 105.5h412q-22 -64 -78.5 -105.5t-127.5 -41.5z" />
    <glyph glyph-name="K" unicode="K" horiz-adv-x="1000" 
d="M857 718h-631q-15 0 -25 -10.5t-10 -24.5v-561q0 -15 10 -25.5t25 -10.5h631q15 0 25 10.5t10 25.5v561q0 14 -10 24.5t-25 10.5zM787 192h-491v175l105 105l176 -175l105 105l105 -105v-105zM717 472q-29 0 -49.5 20.5t-20.5 50t20.5 50t49.5 20.5t49.5 -20.5t20.5 -50
t-20.5 -50t-49.5 -20.5z" />
    <glyph glyph-name="L" unicode="L" 
d="M569 445v296h-119v-296h-296v-119h296v-296h119v296h296v119h-296z" />
    <glyph glyph-name="M" unicode="M" 
d="M791 347q2 21 2 37t-2 37l79 62q12 9 4 24l-75 129q-7 14 -23 9l-93 -38q-30 23 -63 37l-15 99q0 7 -5.5 11.5t-12.5 4.5h-150q-7 0 -12.5 -4.5t-5.5 -11.5l-15 -99q-31 -13 -63 -37l-93 38q-16 6 -23 -9l-75 -129q-8 -14 4 -24l79 -62q-2 -21 -2 -37t2 -37l-79 -62
q-12 -9 -4 -24l75 -129q7 -14 23 -9l93 38q30 -23 63 -37l15 -99q0 -7 5.5 -11.5t12.5 -4.5h150q7 0 12.5 4.5t5.5 11.5l15 99q31 13 63 37l93 -38q16 -6 23 9l75 129q8 15 -4 24zM512 253q-54 0 -92.5 38.5t-38.5 92.5t38.5 92.5t92.5 38.5t92.5 -38.5t38.5 -92.5
t-38.5 -92.5t-92.5 -38.5z" />
    <glyph glyph-name="N" unicode="N" 
d="M448 725q87 0 160.5 -34.5t116.5 -94t43 -130t-43 -130t-116.5 -94.5t-160.5 -35q-25 0 -50 4q-47 -47 -102 -64t-125 -19q32 16 54.5 51t22.5 68q0 9 -1 18q-56 36 -87.5 88.5t-31.5 112.5q0 71 43 130.5t116.5 94t160.5 34.5zM792 145q0 -29 17 -59t44 -43
q-59 1 -104.5 15.5t-86.5 54.5q-22 -2 -43 -2q-95 0 -169 46q149 0 256 87q53 42 82 98q31 59 31 124q0 10 -1 21q78 -64 78 -154q0 -52 -27.5 -97t-75.5 -76q-1 -7 -1 -15zM792 145z" />
    <glyph glyph-name="O" unicode="O" 
d="M180 10l106 119l105 -119l106 119l105 -119l105 119l106 -119l-1 424q0 85 -43 157.5t-115.5 114.5t-158 42t-158 -42t-115 -114.5t-42.5 -157.5v-424zM358 427q-26 0 -44 18t-18 44t18 44t44 18t44 -18t18 -44t-18 -44t-44 -18v0zM572 491q0 26 18.5 44.5t44.5 18.5
t44.5 -18.5t18.5 -44.5t-18.5 -44.5t-44.5 -18.5t-44.5 18.5t-18.5 44.5z" />
    <glyph glyph-name="P" unicode="P" 
d="M186 449h652v-130h-652v130z" />
    <glyph glyph-name="Q" unicode="Q" 
d="M551 752h-84q-6 0 -10.5 -4.5t-4.5 -10.5v-281q0 -6 4.5 -10.5t10.5 -4.5h84q7 0 11 4.5t4 10.5v281q0 6 -4 10.5t-11 4.5zM837 495q-31 78 -95 133l-1 1q-12 10 -21 -1l-48 -59q-9 -11 2 -20l1 -1q43 -38 65 -92q22 -52 16.5 -105.5t-28.5 -99t-67 -79t-100 -45.5
q-20 -4 -53 -5q-24 0 -46 5q-56 12 -100.5 45.5t-67.5 79t-28 99t17 105.5q21 54 65 92l1 1q10 9 2 20l-48 59q-10 11 -21 1l-1 -1q-64 -55 -95 -133q-29 -73 -24 -151.5t44 -148.5q56 -101 164 -148q63 -28 132 -29h6h1h1h4q72 0 139 29q108 47 164 148q39 70 44 148.5
t-24 151.5z" />
    <glyph glyph-name="R" unicode="R" horiz-adv-x="1152" 
d="M206 140q0 -34 24 -58t58 -24h570q34 0 57.5 24t23.5 58v488q0 34 -23.5 58t-57.5 24h-570q-34 0 -58 -24t-24 -58v-488zM776 384l-325 -204v408z" />
    <glyph glyph-name="S" unicode="S" horiz-adv-x="1027" 
d="M861 127v435q0 24 -12 36t-24 12h-12h-22h-51h-70h-65h-51q-17 0 -13 0q-8 0 -14 2t-9 4l-2 3q-12 19 -32 50q-10 15 -21.5 22t-18.5 6h-7h-212q-26 0 -40.5 -14t-16.5 -29l-2 -14v-510q0 -18 5 -30.5t12 -16.5t14 -7t11.5 -2t5.5 0h603q23 0 34 13.5t10 26.5v13z" />
    <glyph glyph-name="T" unicode="T" 
d="M233 540l78 -398q6 -31 23 -50.5t44 -19.5h268q27 0 44 19.5t23 50.5l78 398h-558zM632 648l-36 48h-168l-36 -48h-204v-60h647v60h-203z" />
    <glyph glyph-name="U" unicode="U" 
d="M511 13q11 12 30 33.5t67 82t85 115t67 119t30 107.5q0 118 -82 201.5t-197 83.5t-196 -83.5t-81 -201.5q0 -119 207 -375zM511 567q38 0 65 -28.5t27 -68.5q0 -37 -27 -64.5t-65 -27.5q-37 0 -65 27.5t-28 64.5q0 40 27.5 68.5t65.5 28.5z" />
    <glyph glyph-name="V" unicode="V" 
d="M300 739l-215 -355l215 -355h424l215 355l-41 68l-43 -68l-171 -283h-344l-171 283l171 283h344l-172 -283h-261l130 -213h262l171 281l41 69l-131 218h-424z" />
    <glyph glyph-name="W" unicode="W" 
d="M459 208q-13 0 -23 11l-130 147l48 43l97 -112q19 36 43 73.5t62.5 89.5t91.5 106.5t114 100.5l38 -51q-61 -45 -115 -101.5t-88.5 -104t-60 -90.5t-36.5 -66t-11 -25q-8 -17 -25 -21h-5z" />
    <glyph glyph-name="X" unicode="X" 
d="M903 609q-28 11 -83.5 33.5t-83.5 33.5q0 10 -1 31t-1 32h-5q-24 0 -36 -2v-5q0 -5 1 -19t1 -22q0 -6 0.5 -21t0.5 -23q0 -45 2 -70v-46q0 -31 -2 -45q0 -8 -0.5 -24t-0.5 -23q-2 -24 -2 -52q0 -9 -1 -19t-1 -11q-7 -88 -51 -168q-21 -35 -41 -58q-103 -117 -271 -129h-4
l-20 -2q-26 -2 -67 -3q5 -14 19 -41q13 0 37.5 2t37.5 3q162 13 268 111q3 2 9 7t8 8q9 9 26 29q72 91 90 212h2l2 20v5q0 7 1 11q1 7 2 22.5t2 23.5q3 61 3 92q56 22 166 66q12 5 12 19q-8 18 -19 22zM737 550v29v52q51 -20 103 -40q-52 -21 -103 -41zM218 94
q114 21 190 99t94 193h1l2 20v4v5v3q2 14 2 43q0 6 1 18t1 18h-19h-22q0 -11 -1 -28.5t-1 -23.5q0 -9 -1 -20t-1 -12q0 -3 -0.5 -7t-0.5 -7q-15 -103 -80 -173.5t-165 -90.5v53q0 54 4 126q0 9 1 23.5t1 20.5q0 14 1 21v8q0 6 1 13.5t1 9.5q11 114 73 199t163 125l2 1
q2 1 4 1q28 10 41 13l10 3q6 1 9 2q25 8 60 11h3h4l17 1q8 0 24 2q5 0 19.5 1t21.5 1q-6 13 -19 41q-16 0 -22 -2q-14 0 -41 -3h-11q-36 -3 -82 -14q-10 -2 -40 -12l-4 -2q-25 -9 -55 -24q-57 -29 -104 -76q-93 -96 -114 -239h-2v-21v-5q0 -7 -1 -10q-1 -10 -2 -29t-2 -29
v-9q0 -6 -1 -18t-1 -18q-1 -39 -1 -112v-60h-4l-20 -2q-17 -1 -44 -1v-12q0 -21 1 -31q11 1 33.5 1.5t33.5 1.5h1q0 -10 1 -30.5t1 -30.5h5q26 0 38 2v1q-1 11 -2 33t-2 34zM596 591q10 -6 20 -6q13 0 21 6v75q-11 5 -21 5q-13 0 -20 -5v-75z" />
    <glyph glyph-name="Z" unicode="Z" 
d="M764 730l-371 -71q-14 -3 -23.5 -14t-9.5 -26v-394q-49 19 -106 -3q-49 -19 -73 -57t-10 -73.5t59 -47.5t93 7q41 15 65 45.5t23 62.5v360l326 63v-276q-49 20 -106 -2q-49 -19 -73 -57.5t-9.5 -74t59 -47.5t92.5 7q40 15 64 45t24 61v472q0 10 -7.5 16t-16.5 4z" />
    <glyph glyph-name="a" unicode="a" 
d="M856 600q-204 -162 -221 -183v157q0 13 -9 22.5t-21 9.5h-432q-13 0 -22 -9.5t-9 -22.5v-380q0 -13 9 -22.5t22 -9.5h432q12 0 21 9.5t9 22.5v155q8 -8 63 -54t106 -88l52 -42q7 0 11.5 0.5t7.5 2t4.5 2.5t2 5t0.5 7v10v11v355v12v10q0 3 -0.5 7.5t-2 6t-4.5 3.5
t-7.5 2.5t-11.5 0.5z" />
    <glyph glyph-name="b" unicode="b" 
d="M572 513l69 -69l120 120l75 -75v219h-219l75 -75zM332 135l120 120l-69 69l-120 -120l-75 75v-219h219zM572 255l120 -120l-75 -75h219v219l-75 -75l-120 120zM452 513l-120 120l75 75h-219v-219l75 75l120 -120z" />
    <glyph glyph-name="c" unicode="c" 
d="M836 639l-69 69l-120 -120l-75 76v-220h219l-76 75zM309 249l-121 -120l69 -69l120 120l75 -76v220h-219zM836 129l-120 120l76 75h-220v-219l75 76l120 -121zM188 639l120 -120l-76 -75h220v219l-75 -76l-120 121z" />
    <glyph glyph-name="d" unicode="d" 
d="M648 230v11q26 10 48.5 21.5t47.5 28t40 39.5t15 48q0 21 -56.5 33t-139.5 12v-75l-136 135l136 121v-76q5 1 14.5 0.5t36 -2.5t50.5 -6.5t53.5 -14.5t51 -24t36 -37t14.5 -51q0 -41 -20.5 -72.5t-54.5 -49.5t-67 -27.5t-69 -13.5zM377 499q-26 -9 -48.5 -20.5
t-47.5 -28.5t-40 -39.5t-15 -47.5q0 -21 56.5 -33t139.5 -12v75l136 -135l-136 -121v75q-5 0 -14.5 0.5t-36 2.5t-50.5 6.5t-53.5 14.5t-51 24t-36 36.5t-14.5 51.5q0 41 20.5 72.5t54.5 49t67 27.5t69 14v-12z" />
    <glyph glyph-name="e" unicode="e" 
d="M625 730h-226q-35 0 -60 -23.5t-25 -57.5v-43h235v-57h-235v-66h235v-57h-235v-67h235v-57h-235v-64q0 -34 25 -57.5t60 -23.5h47v-119h132v119h47q35 0 60 23.5t25 57.5v64h-91v57h91v67h-91v57h91v66h-91v57h91v43q0 34 -25 57.5t-60 23.5z" />
    <glyph glyph-name="f" unicode="f" 
d="M324 303v-64q0 -33 25 -56.5t60 -23.5h46v-118h132v117h47q10 0 15 1l-144 144h-181zM324 426v-66h124l-66 66h-58zM717 274v29h-29l-57 57h86v66h-90v56h90v67h-90v56h90v43q0 33 -25 57t-59 24h-224q-30 0 -53 -17.5t-29 -44.5l-53 51l-46 -47l574 -573l46 46zM557 434
l-48 48h48v-48zM557 549h-115l-56 56h171v-56z" />
    <glyph glyph-name="h" unicode="h" 
d="M200 540q-13 0 -22.5 -9.5t-9.5 -22.5v-312q0 -13 9.5 -22.5t22.5 -9.5h391l-378 376h-13zM831 574l-188 -118v52q0 14 -9.5 23t-23.5 9h-200l-174 174l-48 -50l610 -610l49 48l-91 91l73 -47q10 0 14.5 1t8.5 4t4 11v398q0 7 -4 10.5t-8 3.5h-13z" />
    <glyph glyph-name="i" unicode="i" 
d="M282 499h-116v-230h116l230 -230v691l-230 -230v-1zM604 527l-35 -67v-2q36 -29 36 -74t-36 -74l35 -69q35 24 56 61.5t21 81.5t-21 82t-56 61zM855 384q0 94 -47 173t-126 124l-34 -67v-2q60 -35 95.5 -95.5t35.5 -132.5t-35.5 -132.5t-95.5 -95.5v-1l34 -67
q79 44 126 123t47 173z" />
    <glyph glyph-name="j" unicode="j" 
d="M466 106q0 -19 13.5 -32.5t32.5 -13.5t33 13.5t14 33t-14 33t-33 13.5t-33 -14q-13 -14 -13 -33zM466 106zM571 649q0 24 -17 41.5t-42 17.5t-42 -17.5t-17 -41.5v-4l13 -378q0 -19 13.5 -32.5t32.5 -13.5t32.5 13.5t13.5 32.5l13 378v2v2zM571 649z" />
    <glyph glyph-name="k" unicode="k" 
d="M512 -128q-139 0 -257 68.5t-186.5 186.5t-68.5 257t68.5 257t186.5 186.5t257 68.5t257 -68.5t186.5 -186.5t68.5 -257t-68.5 -257t-186.5 -186.5t-257 -68.5zM560 656q0 20 -14 34t-34 14t-34 -14t-14 -34v-352q0 -20 14 -34t34 -14t34 14t14 34v352zM512 160
q-20 0 -34 -14t-14 -34t14 -34t34 -14t34 14t14 34t-14 34t-34 14z" />
    <glyph glyph-name="l" unicode="l" 
d="M652 157q-66 -33 -140 -33q-71 0 -137 31l-32 -34q-19 -20 -8 -45.5t39 -25.5h286q28 0 38.5 25.5t-9.5 44.5zM512 569q51 0 87.5 -36t36.5 -87.5t-36.5 -87.5t-87.5 -36t-87.5 36t-36.5 87.5t36.5 87.5t87.5 36zM512 717q-113 0 -192.5 -79.5t-79.5 -192t79.5 -192
t192.5 -79.5t192.5 79.5t79.5 192t-79.5 192t-192.5 79.5z" />
    <glyph glyph-name="m" unicode="m" 
d="M257 499v-231h117l231 -232v141l-322 322h-26zM605 362v370l-185 -186l-175 175l-46 -46l580 -580l46 47z" />
    <glyph glyph-name="x" unicode="x" horiz-adv-x="1001" 
d="M281 543q-27 -1 -53 -1h-83q-18 0 -36.5 -6t-32.5 -18.5t-23 -32t-9 -45.5v-76h912v41q0 16 -0.5 30t-0.5 18q0 13 -5 29t-17 29.5t-31.5 22.5t-49.5 9h-133v-97h-438v97zM955 310v-52q0 -23 0.5 -52t0.5 -58t-10.5 -47.5t-26 -30t-33 -16t-31.5 -4.5q-14 -1 -29.5 -0.5
t-29.5 0.5h-32l-45 128h-439l-44 -128h-29h-34q-20 0 -45 1q-25 0 -41 9.5t-25.5 23t-13.5 29.5t-4 30v167h911zM163 247q-12 0 -21 -8.5t-9 -21.5t9 -21.5t21 -8.5q13 0 22 8.5t9 21.5t-9 21.5t-22 8.5zM316 123q-8 -26 -14 -48q-5 -19 -10.5 -37t-7.5 -25t-3 -15t1 -14.5
t9.5 -10.5t21.5 -4h37h67h81h80h64h36q23 0 34 12t2 38q-5 13 -9.5 30.5t-9.5 34.5q-5 19 -11 39h-368zM336 498v228q0 11 2.5 23t10 21.5t20.5 15.5t34 6h188q31 0 51.5 -14.5t20.5 -52.5v-227h-327z" />
    <glyph glyph-name="z" unicode="z" 
d="M839 211l-3 4l-7 9q-8 9 -29 27q-30 25 -55 41l-34 22l-15 7q-12 6 -25 1q-11 -3 -16 -13l-18 -26q-2 -4 -8 -16.5t-11 -20.5q-8 -15 -24.5 -22.5t-37.5 1.5q-72 41 -120 87q-71 67 -95 121q-6 9 -1.5 26t19.5 24q9 4 24 10t22 10q5 3 10.5 6t12.5 8l2 3q3 2 4 2l2 2
q13 13 6 30l-2 5q-10 23 -25 49q-12 21 -29 43q-11 15 -22.5 25.5t-18.5 14.5l-6 3q-6 3 -9 5q-17 7 -35 -1q-22 -8 -55 -36q-32 -26 -49.5 -57.5t-13.5 -60.5q7 -51 62 -139.5t128 -158t166.5 -121.5t146.5 -58q55 -7 118 51q27 25 39 51q13 27 2 42z" />
  </font>
</defs>
</svg>
