<?xml version="1.0" standalone="no"?>
<!DOCTYPE svg PUBLIC "-//W3C//DTD SVG 1.1//EN" "http://www.w3.org/Graphics/SVG/1.1/DTD/svg11.dtd" >
<!--
2013-9-30: Created.
-->
<svg>
<metadata>
Created by iconfont
</metadata>
<defs>

<font id="iconfont" horiz-adv-x="1024" >
  <font-face
    font-family="iconfont"
    font-weight="500"
    font-stretch="normal"
    units-per-em="1024"
    ascent="896"
    descent="-128"
  />
    <missing-glyph />
    
    <glyph glyph-name="x" unicode="x" horiz-adv-x="1001"
d="M281 543q-27 -1 -53 -1h-83q-18 0 -36.5 -6t-32.5 -18.5t-23 -32t-9 -45.5v-76h912v41q0 16 -0.5 30t-0.5 18q0 13 -5 29t-17 29.5t-31.5 22.5t-49.5 9h-133v-97h-438v97zM955 310v-52q0 -23 0.5 -52t0.5 -58t-10.5 -47.5t-26 -30t-33 -16t-31.5 -4.5q-14 -1 -29.5 -0.5
t-29.5 0.5h-32l-45 128h-439l-44 -128h-29h-34q-20 0 -45 1q-25 0 -41 9.5t-25.5 23t-13.5 29.5t-4 30v167h911zM163 247q-12 0 -21 -8.5t-9 -21.5t9 -21.5t21 -8.5q13 0 22 8.5t9 21.5t-9 21.5t-22 8.5zM316 123q-8 -26 -14 -48q-5 -19 -10.5 -37t-7.5 -25t-3 -15t1 -14.5
t9.5 -10.5t21.5 -4h37h67h81h80h64h36q23 0 34 12t2 38q-5 13 -9.5 30.5t-9.5 34.5q-5 19 -11 39h-368zM336 498v228q0 11 2.5 23t10 21.5t20.5 15.5t34 6h188q31 0 51.5 -14.5t20.5 -52.5v-227h-327z" />
    

    
    <glyph glyph-name="ic-schedule-px" unicode="&#59042;" d="M511.573333 810.666667C276.053333 810.666667 85.333333 619.52 85.333333 384s190.72-426.666667 426.24-426.666667C747.52-42.666667 938.666667 148.48 938.666667 384S747.52 810.666667 511.573333 810.666667zM512 42.666667c-188.586667 0-341.333333 152.746667-341.333333 341.333333s152.746667 341.333333 341.333333 341.333333 341.333333-152.746667 341.333333-341.333333-152.746667-341.333333-341.333333-341.333333zM533.333333 597.333333H469.333333v-256l224-134.4 32 52.48-192 113.92z"  horiz-adv-x="1024" />

    
    <glyph glyph-name="alarm" unicode="&#59062;" d="M860.16 122.8288A228.6592 228.6592 0 0 0 768 307.2v153.6a282.112 282.112 0 0 1-204.8 270.9504V768c0 42.3424-34.4576 76.8-76.8 76.8S409.6 810.3424 409.6 768v-36.2496A282.112 282.112 0 0 1 204.8 460.8v-153.6a228.7616 228.7616 0 0 0-92.16-184.3712 25.6 25.6 0 0 1 15.36-46.08h232.96a128.1536 128.1536 0 0 1 125.3888-153.6 128.1536 128.1536 0 0 1 125.44 153.6h232.96a25.6 25.6 0 0 1 15.36 46.08zM460.8 768a25.6 25.6 0 0 0 51.2 0v-26.7776a282.0096 282.0096 0 0 1-51.2 0V768z m102.4-716.8c0-42.3424-34.4576-76.8-76.8-76.8a76.9024 76.9024 0 0 0-72.3968 102.4h144.7936c2.8672-8.192 4.4032-16.8448 4.4032-25.6zM191.5904 128c13.056 15.8208 24.4224 33.0752 33.7408 51.2512A278.272 278.272 0 0 1 256 307.2v153.6C256 587.8272 359.3728 691.2 486.4 691.2S716.8 587.8272 716.8 460.8v-153.6a278.9376 278.9376 0 0 1 64.4096-179.2H191.5392z"  horiz-adv-x="1024" />

    
    <glyph glyph-name="camera-video" unicode="&#59063;" d="M979.5072 22.8864c-12.3904 0-24.832 4.9664-37.0688 14.7456l-176.0256 140.8512c-28.2624 22.6304-49.6128 66.9696-49.6128 103.168v153.6c0 36.1984 21.2992 80.5376 49.6128 103.168l176.0256 140.8512c12.2368 9.7792 24.6784 14.7456 37.0688 14.7456 22.1696 0 44.4928-16.6912 44.4928-53.9136v-563.2c0-14.2336-3.2768-26.2144-9.728-35.5328a41.728 41.728 0 0 0-34.7648-18.3808zM972.8 637.952l-174.4384-139.52c-15.872-12.6976-30.3616-42.8544-30.3616-63.1808v-153.6c0-20.3776 14.4896-50.4832 30.3616-63.1808L972.8 78.9504V638.0032zM588.8 25.6h-512C34.4576 25.6 0 60.0576 0 102.4v512C0 656.7424 34.4576 691.2 76.8 691.2h512c42.3424 0 76.8-34.4576 76.8-76.8v-512c0-42.3424-34.4576-76.8-76.8-76.8zM76.8 640a25.6 25.6 0 0 1-25.6-25.6v-512a25.6 25.6 0 0 1 25.6-25.6h512a25.6 25.6 0 0 1 25.6 25.6v512a25.6 25.6 0 0 1-25.6 25.6h-512z"  horiz-adv-x="1024" />

    
    <glyph glyph-name="bubble" unicode="&#59064;" d="M25.69728-76.8a25.6 25.6 0 0 0-13.1584 47.5648 318.0032 318.0032 0 0 1 135.2192 162.7648C53.65248 205.568 0.09728 305.2544 0.09728 409.6c0 52.6848 13.2096 103.7312 39.3216 151.7568 24.8832 45.7728 60.416 86.784 105.5232 121.9072C236.43648 754.432 357.72928 793.6512 486.49728 793.6512s250.0608-39.2192 341.5552-110.3872c45.1072-35.072 80.64-76.0832 105.5232-121.9072 26.112-47.9744 39.3216-99.0208 39.3216-151.7568s-13.2096-103.7312-39.3216-151.7568c-24.8832-45.7728-60.416-86.784-105.5232-121.9072-91.4944-71.168-212.7872-110.3872-341.5552-110.3872-52.8896 0-104.8064 6.6048-154.4192 19.712a1061.888 1061.888 0 0 0-112.0768-65.024c-76.1856-37.888-141.5168-57.088-194.2528-57.088z m460.8 819.2C246.52288 742.4 51.29728 593.1008 51.29728 409.6c0-92.928 51.456-182.3744 141.1072-245.3504 8.8064-6.1952 12.8-17.2032 10.0352-27.5968-5.9904-22.3232-26.368-83.6096-80.896-142.7456 66.6624 23.3472 138.4448 63.8464 191.4368 100.3008a25.5488 25.5488 0 0 0 21.5552 3.5328C383.07328 83.8656 434.22208 76.8 486.49728 76.8c239.9744 0 435.2 149.2992 435.2 332.8S726.47168 742.4 486.49728 742.4z"  horiz-adv-x="1024" />

    
    <glyph glyph-name="arrow-down-circle" unicode="&#59065;" d="M830.3616 14.4384C922.2144 106.2912 972.8 228.4544 972.8 358.4s-50.5856 252.0576-142.4384 343.9104-214.016 142.4384-343.9616 142.4384-252.0576-50.5856-343.9616-142.4384S0 488.2944 0 358.4s50.5856-252.0576 142.4384-343.9616S356.4544-128 486.4-128s252.0576 50.5856 343.9616 142.4384zM51.2 358.4C51.2 598.3744 246.4256 793.6 486.4 793.6S921.6 598.3744 921.6 358.4c0-239.9744-195.2256-435.2-435.2-435.2S51.2 118.4256 51.2 358.4zM504.4736 58.7264l204.8 204.8a25.6 25.6 0 0 1-36.1984 36.1984L512 138.5984V665.6a25.6 25.6 0 0 1-51.2 0v-527.0016l-161.1264 161.0752a25.6 25.6 0 0 1-36.1472-36.1472l204.8-204.8a25.6 25.6 0 0 1 36.1984 0z"  horiz-adv-x="1024" />

    
    <glyph glyph-name="arrow-right" unicode="&#59066;" d="M990.9248 376.5248l-307.2 307.2a25.6 25.6 0 0 1-36.1984-36.1984l263.4752-263.4752H76.8a25.6 25.6 0 0 1 0-51.2h834.2016l-263.4752-263.4752a25.6 25.6 0 0 1 36.2496-36.1984l307.2 307.2a25.6 25.6 0 0 1 0 36.1984z"  horiz-adv-x="1024" />

    
    <glyph glyph-name="arrow-left" unicode="&#59067;" d="M33.0752 376.5248l307.2 307.2a25.6 25.6 0 0 0 36.1984-36.1984L112.9984 384.0512H947.2a25.6 25.6 0 0 0 0-51.2H112.9984l263.4752-263.4752a25.6 25.6 0 0 0-36.2496-36.1984l-307.2 307.2a25.6 25.6 0 0 0 0 36.1984z"  horiz-adv-x="1024" />

    
    <glyph glyph-name="camera" unicode="&#59068;" d="M486.4 128C359.3728 128 256 231.3728 256 358.4S359.3728 588.8 486.4 588.8 716.8 485.4272 716.8 358.4 613.4272 128 486.4 128z m0 409.6C387.584 537.6 307.2 457.216 307.2 358.4S387.584 179.2 486.4 179.2s179.2 80.384 179.2 179.2S585.216 537.6 486.4 537.6zM896-25.6h-819.2C34.4576-25.6 0 8.8576 0 51.2v512C0 605.5424 34.4576 640 76.8 640H153.6c21.248 0 54.272 13.6704 69.3248 28.7232l30.0032 30.0032c24.9344 24.9344 70.2976 43.7248 105.5232 43.7248h256c35.2256 0 80.5888-18.7904 105.5232-43.7248l30.0032-30.0032c15.0016-15.0016 48.0768-28.7232 69.3248-28.7232h76.8c42.3424 0 76.8-34.4576 76.8-76.8v-512c0-42.3424-34.4576-76.8-76.8-76.8zM76.8 588.8a25.6 25.6 0 0 1-25.6-25.6v-512a25.6 25.6 0 0 1 25.6-25.6h819.2a25.6 25.6 0 0 1 25.6 25.6v512a25.6 25.6 0 0 1-25.6 25.6H819.2c-35.2256 0-80.5888 18.7904-105.5232 43.7248l-30.0032 30.0032c-15.0016 15.0016-48.0768 28.7232-69.3248 28.7232h-256c-21.248 0-54.272-13.6704-69.3248-28.7232l-30.0032-30.0032C234.0864 607.5904 188.7744 588.8 153.4976 588.8h-76.8z"  horiz-adv-x="1024" />

    
    <glyph glyph-name="cross" unicode="&#59069;" d="M548.1984 358.4l289.0752 289.0752a25.6 25.6 0 0 1-36.1984 36.1984L512 394.5984 222.9248 683.6736a25.6 25.6 0 0 1-36.1984-36.1984L475.8016 358.4l-289.0752-289.0752a25.6 25.6 0 0 1 36.2496-36.1984l289.0752 289.0752 289.0752-289.0752a25.4976 25.4976 0 0 1 36.2496 0 25.6 25.6 0 0 1 0 36.1984L548.3008 358.4z"  horiz-adv-x="1024" />

    
    <glyph glyph-name="download" unicode="&#59070;" d="M760.4736 402.0736a25.6 25.6 0 0 1-36.1984 0L512 189.7984V768a25.6 25.6 0 0 1-51.2 0v-578.2016L248.5248 402.0736a25.6 25.6 0 0 1-36.1984-36.1984l256-256a25.4976 25.4976 0 0 1 36.2496 0.0512l256 256a25.6 25.6 0 0 1 0 36.1984zM896-76.8h-819.2C34.4576-76.8 0-42.3424 0 0v102.4a25.6 25.6 0 0 0 51.2 0v-102.4a25.6 25.6 0 0 1 25.6-25.6h819.2a25.6 25.6 0 0 1 25.6 25.6v102.4a25.6 25.6 0 0 0 51.2 0v-102.4c0-42.3424-34.4576-76.8-76.8-76.8z"  horiz-adv-x="1024" />

    
    <glyph glyph-name="cog" unicode="&#59071;" d="M390.7072-112.7424a25.2416 25.2416 0 0 0-6.4 0.8192 509.5424 509.5424 0 0 0-131.2768 54.2208 25.6 25.6 0 0 0-9.5232 34.3552 102.5024 102.5024 0 0 1-138.9568 138.9568 25.6 25.6 0 0 0-34.3552 9.5232 510.3104 510.3104 0 0 0-54.2208 131.2768 25.6 25.6 0 0 0 16.64 30.6176 102.3488 102.3488 0 0 1 0 194.048 25.6 25.6 0 0 0-16.64 30.6176 509.5424 509.5424 0 0 0 54.2208 131.2768 25.6 25.6 0 0 0 34.3552 9.5232 102.4512 102.4512 0 0 1 138.9568 138.9568 25.6 25.6 0 0 0 9.5232 34.3552A510.3104 510.3104 0 0 0 384.3072 880.0256a25.6 25.6 0 0 0 30.6176-16.64 102.3488 102.3488 0 0 1 194.048 0 25.6 25.6 0 0 0 30.6176 16.64 509.5424 509.5424 0 0 0 131.2768-54.2208 25.6 25.6 0 0 0 9.5232-34.3552 102.5024 102.5024 0 0 1 138.9568-138.9568 25.6 25.6 0 0 0 34.3552-9.5232 510.3104 510.3104 0 0 0 54.2208-131.2768 25.6 25.6 0 0 0-16.64-30.6176 102.3488 102.3488 0 0 1 0-194.048 25.6 25.6 0 0 0 16.64-30.6176 509.5424 509.5424 0 0 0-54.2208-131.2768 25.6 25.6 0 0 0-34.3552-9.5232 102.5024 102.5024 0 0 1-138.9568-138.9568 25.6 25.6 0 0 0-9.5232-34.3552 510.3104 510.3104 0 0 0-131.2768-54.2208 25.6 25.6 0 0 0-30.6176 16.64 102.3488 102.3488 0 0 1-194.048 0 25.7024 25.7024 0 0 0-24.2688-17.4592zM512 25.6a153.6 153.6 0 0 0 135.936-82.0224 461.7728 461.7728 0 0 1 77.312 31.8464 153.8048 153.8048 0 0 0 195.3792 195.3792c12.9536 24.7808 23.6544 50.6368 31.8464 77.312a153.5488 153.5488 0 1 0 0 271.872 461.7728 461.7728 0 0 1-31.8464 77.312 153.8048 153.8048 0 0 0-195.3792 195.3792 455.7312 455.7312 0 0 1-77.312 31.8464 153.5488 153.5488 0 1 0-271.872 0c-26.624-8.192-52.5312-18.8928-77.312-31.8464a153.8048 153.8048 0 0 0-195.3792-195.3792 455.7312 455.7312 0 0 1-31.8464-77.312 153.5488 153.5488 0 1 0 0-271.872c8.192-26.624 18.8928-52.5312 31.8464-77.312a153.8048 153.8048 0 0 0 195.3792-195.3792c24.7808-12.9536 50.6368-23.6544 77.312-31.8464A153.4976 153.4976 0 0 0 512 25.6zM512 230.4c-84.6848 0-153.6 68.9152-153.6 153.6s68.9152 153.6 153.6 153.6 153.6-68.9152 153.6-153.6-68.9152-153.6-153.6-153.6z m0 256c-56.4736 0-102.4-45.9264-102.4-102.4s45.9264-102.4 102.4-102.4 102.4 45.9264 102.4 102.4-45.9264 102.4-102.4 102.4z"  horiz-adv-x="1024" />

    
    <glyph glyph-name="exit" unicode="&#59072;" d="M588.8 486.4a25.6 25.6 0 0 1 25.6 25.6v204.8c0 42.3424-34.4576 76.8-76.8 76.8h-460.8C34.4576 793.6 0 759.1424 0 716.8v-614.4c0-38.1952 27.4944-79.872 62.5664-94.8736l264.2944-113.2544c9.1136-3.8912 18.3808-5.8368 27.2384-5.8368 10.9056 0 21.2992 2.9696 30.1568 8.8064 16.0768 10.5984 25.344 29.44 25.344 51.6096v76.8h128c42.3424 0 76.8 34.4576 76.8 76.8v204.8a25.6 25.6 0 0 1-51.2 0v-204.8a25.6 25.6 0 0 0-25.6-25.6H409.6v486.4c0 38.1952-27.4944 79.872-62.5664 94.8736L150.3232 742.4512H537.6a25.6 25.6 0 0 0 25.6-25.6v-204.8a25.6 25.6 0 0 1 25.6-25.6zM326.8608 611.0208c16.4864-7.0656 31.5392-29.9008 31.5392-47.8208v-614.4c0-5.3248-1.4336-8.2944-2.304-8.8576s-4.1472-0.7168-9.0624 1.3824l-264.2944 113.2544C66.2528 61.6448 51.2 84.4288 51.2 102.4v614.4c0 4.0448 0.9216 7.8336 2.6112 11.264l273.0496-117.0432zM939.7248 427.7248l-153.6 153.6a25.6 25.6 0 0 1-36.1984-36.1984l109.8752-109.8752H537.6a25.6 25.6 0 0 1 0-51.2h322.2016l-109.8752-109.8752a25.6 25.6 0 0 1 36.2496-36.1984l153.6 153.6a25.6 25.6 0 0 1 0 36.1984z"  horiz-adv-x="1024" />

    
    <glyph glyph-name="checkmark-circle" unicode="&#59073;" d="M486.400051-127.997952c-129.94534 0-252.057096 50.585499-343.960912 142.438115S0.001024 228.455735 0.001024 358.349875c0 129.94534 50.585499 252.057096 142.438115 343.960912S356.454711 844.800102 486.400051 844.800102c129.94534 0 252.057096-50.585499 343.960912-142.489315S972.799078 488.295215 972.799078 358.349875s-50.585499-252.057096-142.438115-343.909712A483.224634 483.224634 0 0 0 486.400051-127.997952z m0 921.598157C246.426131 793.600205 51.200922 598.374995 51.200922 358.401075S246.426131-76.798054 486.400051-76.798054s435.19913 195.22521 435.19913 435.199129S726.373971 793.600205 486.400051 793.600205zM384.000256 153.601485a25.702349 25.702349 0 0 0-18.124764 7.475185l-153.599693 153.599693a25.599949 25.599949 0 0 0 36.198328 36.198327l135.474929-135.474929 340.27452 340.27452a25.599949 25.599949 0 0 0 36.198327-36.198328l-358.399283-358.399283a25.497549 25.497549 0 0 0-18.124764-7.475185z"  horiz-adv-x="1024" />

    
    <glyph glyph-name="layers" unicode="&#59074;" d="M512 281.6a25.7024 25.7024 0 0 0-9.9328 1.9968l-486.4 204.8a25.6512 25.6512 0 0 0 0 47.2064l486.4 204.8a25.7024 25.7024 0 0 0 19.8656 0l486.4-204.8a25.6512 25.6512 0 0 0 0-47.2064l-486.4-204.8A25.7024 25.7024 0 0 0 512 281.6zM91.5456 512L512 335.0016 932.4544 512 512 688.9984 91.5456 512zM512 128a25.7024 25.7024 0 0 0-9.9328 1.9968l-486.4 204.8a25.6 25.6 0 0 0 19.8656 47.2064L512 181.4016l476.4672 200.6016a25.6 25.6 0 1 0 19.8656-47.2064l-486.4-204.8A25.7024 25.7024 0 0 0 512 128zM512-25.6a25.7024 25.7024 0 0 0-9.9328 1.9968l-486.4 204.8a25.6 25.6 0 0 0 19.8656 47.2064L512 27.8016l476.4672 200.6016a25.6 25.6 0 1 0 19.8656-47.2064l-486.4-204.8A25.7024 25.7024 0 0 0 512-25.6z"  horiz-adv-x="1025" />

    
    <glyph glyph-name="circle-minus" unicode="&#59075;" d="M830.3616 702.3616C738.5088 794.2144 616.3456 844.8 486.4 844.8s-252.0576-50.5856-343.9616-142.4384S0 488.3456 0 358.4512s50.5856-252.0576 142.4384-343.9616 214.016-142.4384 343.9616-142.4384 252.0576 50.5856 343.9616 142.4384S972.8 228.5056 972.8 358.4512s-50.5856 252.0576-142.4384 343.9104zM486.4-76.8C246.4256-76.8 51.2 118.4256 51.2 358.4S246.4256 793.6 486.4 793.6c239.9744 0 435.2-195.2256 435.2-435.2S726.3744-76.8 486.4-76.8zM793.6 332.8h-614.4a25.6 25.6 0 0 0 0 51.2h614.4a25.6 25.6 0 0 0 0-51.2z"  horiz-adv-x="1024" />

    
    <glyph glyph-name="file-empty" unicode="&#59076;" d="M914.1248 606.9248l-230.4 230.4A25.6 25.6 0 0 1 665.6 844.8H179.2C136.8576 844.8 102.4 810.3424 102.4 768v-819.2c0-42.3424 34.4576-76.8 76.8-76.8h665.6c42.3424 0 76.8 34.4576 76.8 76.8V588.8a25.8048 25.8048 0 0 1-7.4752 18.1248zM859.8016 588.8H691.2a25.6 25.6 0 0 0-25.6 25.6V783.0016L859.8016 588.8zM870.4-51.2a25.6 25.6 0 0 0-25.6-25.6h-665.6a25.6 25.6 0 0 0-25.6 25.6v819.2a25.6 25.6 0 0 0 25.6 25.6H614.4v-179.2c0-42.3424 34.4576-76.8 76.8-76.8H870.4v-588.8z"  horiz-adv-x="1024" />

    
    <glyph glyph-name="lock" unicode="&#59077;" d="M742.4 486.4H716.8V563.2C716.8 690.2272 613.4272 793.6 486.4 793.6S256 690.2272 256 563.2V486.4h-25.6C188.0576 486.4 153.6 451.9424 153.6 409.6v-409.6c0-42.3424 34.4576-76.8 76.8-76.8h512c42.3424 0 76.8 34.4576 76.8 76.8v409.6c0 42.3424-34.4576 76.8-76.8 76.8zM307.2 563.2C307.2 662.016 387.584 742.4 486.4 742.4S665.6 662.016 665.6 563.2V486.4H307.2V563.2z m460.8-563.2a25.6 25.6 0 0 0-25.6-25.6h-512a25.6 25.6 0 0 0-25.6 25.6v409.6a25.6 25.6 0 0 0 25.6 25.6h512a25.6 25.6 0 0 0 25.6-25.6v-409.6z"  horiz-adv-x="1024" />

    
    <glyph glyph-name="magnifier" unicode="&#59078;" d="M966.06374-85.031614l-304.262127 331.959555A381.313196 381.313196 0 0 1 768.034814 512.024574c0 102.547037-39.933444 199.001664-112.479202 271.496225S486.606425 896 384.059388 896 185.057724 856.066556 112.563164 783.520799 0.083963 614.571611 0.083963 512.024574s39.933444-199.001664 112.479201-271.496224S281.512351 128.049149 384.059388 128.049149a380.954819 380.954819 0 0 1 240.01024 84.21861l304.262127-331.908358a25.444772 25.444772 0 0 1 36.196083-1.587098 25.598362 25.598362 0 0 1 1.587099 36.144886zM51.229489 512.024574C51.229489 695.513631 200.519135 844.803277 384.008191 844.803277S716.786894 695.513631 716.786894 512.024574 567.497248 179.245872 384.008191 179.245872 51.229489 328.535518 51.229489 512.024574z"  horiz-adv-x="1024" />

    
    <glyph glyph-name="map-marker" unicode="&#59079;" d="M512-128a25.6 25.6 0 0 0-20.1216 9.7792c-2.9184 3.7376-72.6016 92.8768-143.2064 224.512-41.5744 77.4656-74.752 153.5488-98.56 226.0992C220.0576 423.8848 204.8512 510.1568 204.8512 588.8c0 169.3696 137.8304 307.2 307.2 307.2s307.2-137.8304 307.2-307.2c0-78.6432-15.2576-164.864-45.2608-256.4096-23.808-72.5504-56.9856-148.6336-98.56-226.0992-70.656-131.6352-140.288-220.7744-143.2064-224.512a25.6 25.6 0 0 0-20.1216-9.7792z m0 972.8C370.8416 844.8 256 729.9584 256 588.8c0-166.6048 74.9056-341.1968 137.7792-458.2912A1761.8432 1761.8432 0 0 1 512-59.4432a1760.256 1760.256 0 0 1 118.6816 190.7712C693.2992 248.2176 768 422.5024 768 588.8c0 141.1584-114.8416 256-256 256zM512 435.2C427.3152 435.2 358.4 504.1152 358.4 588.8s68.9152 153.6 153.6 153.6 153.6-68.9152 153.6-153.6-68.9152-153.6-153.6-153.6z m0 256c-56.4736 0-102.4-45.9264-102.4-102.4s45.9264-102.4 102.4-102.4 102.4 45.9264 102.4 102.4-45.9264 102.4-102.4 102.4z"  horiz-adv-x="1024" />

    
    <glyph glyph-name="mic" unicode="&#59080;" d="M486.4 179.2C387.584 179.2 307.2 259.584 307.2 358.4v307.2C307.2 764.416 387.584 844.8 486.4 844.8S665.6 764.416 665.6 665.6v-307.2c0-98.816-80.384-179.2-179.2-179.2z m0 614.4A128.1536 128.1536 0 0 1 358.4 665.6v-307.2C358.4 287.8464 415.8464 230.4 486.4 230.4s128 57.4464 128 128v307.2C614.4 736.1536 556.9536 793.6 486.4 793.6zM819.2 358.4a25.6 25.6 0 0 1-51.2 0c0-155.2896-126.3104-281.6-281.6-281.6S204.8 203.1104 204.8 358.4a25.6 25.6 0 0 1-51.2 0 333.2608 333.2608 0 0 1 307.2-331.8272V-76.8H384a25.6 25.6 0 0 1 0-51.2h204.8a25.6 25.6 0 0 1 0 51.2H512v103.3728a333.2608 333.2608 0 0 1 307.2 331.8272z"  horiz-adv-x="1024" />

    
    <glyph glyph-name="menu" unicode="&#59081;" d="M896 588.8h-768a25.6 25.6 0 0 0 0 51.2h768a25.6 25.6 0 0 0 0-51.2zM896 332.8h-768a25.6 25.6 0 0 0 0 51.2h768a25.6 25.6 0 0 0 0-51.2zM896 76.8h-768a25.6 25.6 0 0 0 0 51.2h768a25.6 25.6 0 0 0 0-51.2z"  horiz-adv-x="1024" />

    
    <glyph glyph-name="pencil" unicode="&#59082;" d="M978.1248 850.1248C949.3504 878.8992 911.104 894.72 870.4 894.72s-78.9504-15.8208-107.7248-44.5952l-652.8-652.8a25.3952 25.3952 0 0 1-5.9392-9.3696l-102.4-281.6a25.6 25.6 0 0 1 32.8192-32.768l281.6 102.4a26.112 26.112 0 0 1 9.3696 5.9392l652.8 652.8c28.7744 28.7744 44.5952 67.0208 44.5952 107.7248s-15.8208 78.9504-44.5952 107.7248zM293.12 22.1184l-224.7168-81.7152 81.7152 224.7168L716.8 731.8016 859.8016 588.8 293.12 22.1184zM941.8752 670.9248l-45.8752-45.8752-143.0016 143.0016 45.8752 45.8752c19.0976 19.0976 44.4928 29.5936 71.4752 29.5936s52.3776-10.496 71.4752-29.5936 29.5936-44.4928 29.5936-71.4752-10.496-52.3776-29.5936-71.4752z"  horiz-adv-x="1024" />

    
    <glyph glyph-name="mustache" unicode="&#59083;" d="M486.400051-127.997952c-129.94534 0-252.057096 50.585499-343.960912 142.438115S0.001024 228.455735 0.001024 358.349875c0 129.94534 50.585499 252.057096 142.438115 343.960912S356.454711 844.800102 486.400051 844.800102c129.94534 0 252.057096-50.585499 343.960912-142.489315S972.799078 488.295215 972.799078 358.349875s-50.585499-252.057096-142.438115-343.909712A483.224634 483.224634 0 0 0 486.400051-127.997952z m0 921.598157C246.426131 793.600205 51.200922 598.374995 51.200922 358.401075S246.426131-76.798054 486.400051-76.798054s435.19913 195.22521 435.19913 435.199129S726.373971 793.600205 486.400051 793.600205zM332.800358 486.400819C290.458043 486.400819 256.000512 520.85835 256.000512 563.200666S290.458043 640.000512 332.800358 640.000512 409.600205 605.542981 409.600205 563.200666 375.142674 486.400819 332.800358 486.400819z m0 102.399795a25.599949 25.599949 0 1 1 0-51.199897 25.599949 25.599949 0 0 1 0 51.199897zM639.999744 486.400819c-42.342315 0-76.799846 34.457531-76.799846 76.799847S597.657429 640.000512 639.999744 640.000512s76.799846-34.457531 76.799846-76.799846S682.342059 486.400819 639.999744 486.400819z m0 102.399795a25.599949 25.599949 0 1 1 0-51.199897 25.599949 25.599949 0 0 1 0 51.199897zM815.256993 269.671653a25.702349 25.702349 0 0 1-26.675146 11.468777 142.540515 142.540515 0 0 0-27.443145-2.867195c-44.646311 0-71.782256 25.753548-100.454199 53.043094-27.289545 25.907148-55.500689 52.735895-97.433406 52.735895-30.566339 0-58.009484-13.465573-76.799846-34.764731a102.194996 102.194996 0 0 1-76.799846 34.764731c-41.932716 0-70.14386-26.828746-97.433405-52.735895-28.723143-27.289545-55.807888-53.043094-100.4542-53.043094-8.652783 0-17.868764 0.972798-27.443145 2.867195a25.702349 25.702349 0 0 1-25.497549-40.499119c59.238282-79.001442 135.270129-95.590209 188.671623-95.590209 31.795136 0 57.087886 5.990388 69.375861 9.574381 27.187146 7.884784 52.121496 27.750344 69.631861 52.633494 17.561565-24.88315 42.495915-44.697511 69.631861-52.633494 12.287975-3.583993 37.580725-9.574381 69.375861-9.574381 53.350293 0 129.433341 16.588767 188.671623 95.590209a25.599949 25.599949 0 0 1 1.177597 29.030342zM402.432219 203.777384a201.061998 201.061998 0 0 0-55.09109-7.526385 178.175644 178.175644 0 0 0-105.932588 33.484734c47.871904 9.164782 79.667041 39.321521 105.983788 64.409471 25.19035 23.961552 41.727917 38.655923 62.156676 38.655922 28.211144 0 51.199898-22.988754 51.199898-51.199897 0-31.283137-28.364743-69.068662-58.367884-77.823845z m222.975554-7.526385c-25.446349 0-45.414309 4.710391-55.09109 7.526385-30.00314 8.703983-58.367883 46.540707-58.367883 77.823845 0 28.211144 22.988754 51.199898 51.199898 51.199897 20.479959 0 36.966326-14.694371 62.156675-38.655922 26.367947-25.03675 58.111884-55.24469 105.983788-64.358272a178.431643 178.431643 0 0 0-105.932588-33.484733z"  horiz-adv-x="1024" />

    
    <glyph glyph-name="picture" unicode="&#59084;" d="M947.2-128h-870.4C34.4576-128 0-93.5424 0-51.2v870.4C0 861.5424 34.4576 896 76.8 896h870.4c42.3424 0 76.8-34.4576 76.8-76.8v-870.4c0-42.3424-34.4576-76.8-76.8-76.8zM76.8 844.8a25.6 25.6 0 0 1-25.6-25.6v-870.4a25.6 25.6 0 0 1 25.6-25.6h870.4a25.6 25.6 0 0 1 25.6 25.6v870.4a25.6 25.6 0 0 1-25.6 25.6h-870.4zM665.6 435.2c-56.4736 0-102.4 45.9264-102.4 102.4s45.9264 102.4 102.4 102.4 102.4-45.9264 102.4-102.4-45.9264-102.4-102.4-102.4z m0 153.6c-28.2112 0-51.2-22.9888-51.2-51.2s22.9888-51.2 51.2-51.2 51.2 22.9888 51.2 51.2-22.9888 51.2-51.2 51.2zM896 793.6h-768a25.6 25.6 0 0 1-25.6-25.6v-614.4a25.6 25.6 0 0 1 25.6-25.6h768a25.6 25.6 0 0 1 25.6 25.6v614.4a25.6 25.6 0 0 1-25.6 25.6zM153.6 297.472l164.3008 184.8832c4.1984 4.7104 9.6768 7.3728 15.4624 7.424s11.3152-2.4576 15.616-7.0656L632.2688 179.2H153.6v118.272zM870.4 179.2h-168.0896L386.4576 517.632a71.5776 71.5776 0 0 1-106.8032-1.28L153.6 374.528V742.4h716.8v-563.2z"  horiz-adv-x="1024" />

    
    <glyph glyph-name="phone-handset" unicode="&#59085;" d="M819.2-128c-90.6752 0-187.136 25.7024-286.72 76.3904-91.8016 46.7456-182.4768 113.664-262.2464 193.536s-146.5856 170.6496-193.28 262.5024C26.368 504.064 0.6656 600.5248 0.6656 691.2c0 58.7776 54.784 115.5584 78.2848 137.216C112.7936 859.5968 166.0416 896 204.7488 896c19.2512 0 41.7792-12.5952 71.0144-39.6288 21.76-20.1728 46.2848-47.5136 70.8096-79.0528 14.7968-19.0464 88.576-116.2752 88.576-162.9184 0-38.2464-43.264-64.8704-89.0368-92.9792-17.7152-10.8544-35.9936-22.1184-49.2032-32.7168-14.1312-11.3152-16.64-17.3056-17.0496-18.6368 48.5888-121.1392 197.12-269.6704 318.208-318.208 1.0752 0.3584 7.0656 2.7136 18.5856 17.0496 10.5984 13.2096 21.8624 31.5392 32.7168 49.2032 28.16 45.7728 54.7328 89.0368 92.9792 89.0368 46.6432 0 143.872-73.7792 162.9184-88.576 31.5392-24.5248 58.88-49.0496 79.0528-70.8096 27.0336-29.184 39.6288-51.7632 39.6288-71.0144 0-38.7072-36.4032-92.1088-67.5328-126.1056-21.7088-23.6544-78.4896-78.6944-137.2672-78.6944zM204.4928 844.8c-13.7216-0.256-50.6368-17.0496-90.7776-54.016C75.6224 755.6608 51.9168 717.5168 51.9168 691.2c0-344.5248 423.1168-768 767.2832-768 26.2656 0 64.4096 23.808 99.5328 62.1056 37.0176 40.3456 53.8112 77.4144 54.0672 91.1872-1.6384 9.728-28.5696 47.5648-102.2464 104.2944-63.3344 48.7424-114.688 74.9056-127.8976 75.2128-0.9216-0.256-6.656-2.4576-18.2784-17.2032-10.0864-12.8512-20.8896-30.4128-31.3856-47.4112-28.672-46.6432-55.7568-90.7264-95.1296-90.7264a49.664 49.664 0 0 0-18.5856 3.6352c-134.4 53.76-293.3248 212.6848-347.0848 347.0848-6.4512 16.128-7.4752 41.4208 24.2688 70.1952 16.896 15.3088 40.2432 29.6448 62.8736 43.5712 16.9984 10.4448 34.6112 21.248 47.4112 31.3856 14.7456 11.6224 16.9472 17.3568 17.2032 18.2784-0.3584 13.2096-26.4704 64.5632-75.2128 127.8976C252.0064 816.384 214.1696 843.264 204.4416 844.9536z"  horiz-adv-x="1024" />

    
    <glyph glyph-name="smile" unicode="&#59086;" d="M486.400051-127.997952c-129.94534 0-252.057096 50.585499-343.960912 142.438115S0.001024 228.455735 0.001024 358.349875c0 129.94534 50.585499 252.057096 142.438115 343.960912S356.454711 844.800102 486.400051 844.800102c129.94534 0 252.057096-50.585499 343.960912-142.489315S972.799078 488.295215 972.799078 358.349875s-50.585499-252.057096-142.438115-343.909712A483.224634 483.224634 0 0 0 486.400051-127.997952z m0 921.598157C246.426131 793.600205 51.200922 598.374995 51.200922 358.401075S246.426131-76.798054 486.400051-76.798054s435.19913 195.22521 435.19913 435.199129S726.373971 793.600205 486.400051 793.600205zM332.800358 486.400819C290.458043 486.400819 256.000512 520.85835 256.000512 563.200666S290.458043 640.000512 332.800358 640.000512 409.600205 605.542981 409.600205 563.200666 375.142674 486.400819 332.800358 486.400819z m0 102.399795a25.599949 25.599949 0 1 1 0-51.199897 25.599949 25.599949 0 0 1 0 51.199897zM639.999744 486.400819c-42.342315 0-76.799846 34.457531-76.799846 76.799847S597.657429 640.000512 639.999744 640.000512s76.799846-34.457531 76.799846-76.799846S682.342059 486.400819 639.999744 486.400819z m0 102.399795a25.599949 25.599949 0 1 1 0-51.199897 25.599949 25.599949 0 0 1 0 51.199897zM486.400051 25.601741A333.208934 333.208934 0 0 0 153.600717 358.401075a25.599949 25.599949 0 0 0 51.199897 0C204.800614 203.111786 331.110762 76.801638 486.400051 76.801638s281.599437 126.310147 281.599437 281.599437a25.599949 25.599949 0 0 0 51.199898 0c0-183.500433-149.298901-332.799334-332.799335-332.799334z"  horiz-adv-x="1024" />

    
    <glyph glyph-name="plus-circle" unicode="&#59087;" d="M830.3616 702.3616C738.5088 794.2144 616.3456 844.8 486.4 844.8s-252.0576-50.5856-343.9616-142.4384S0 488.3456 0 358.4512s50.5856-252.0576 142.4384-343.9616 214.016-142.4384 343.9616-142.4384 252.0576 50.5856 343.9616 142.4384S972.8 228.5056 972.8 358.4512s-50.5856 252.0576-142.4384 343.9104zM486.4-76.8C246.4256-76.8 51.2 118.4256 51.2 358.4S246.4256 793.6 486.4 793.6c239.9744 0 435.2-195.2256 435.2-435.2S726.3744-76.8 486.4-76.8zM793.6 384H512V665.6a25.6 25.6 0 0 1-51.2 0V384H179.2a25.6 25.6 0 0 1 0-51.2H460.8v-281.6a25.6 25.6 0 0 1 51.2 0V332.8h281.6a25.6 25.6 0 0 1 0 51.2z"  horiz-adv-x="1024" />

    
    <glyph glyph-name="trash" unicode="&#59088;" d="M793.6 793.6H614.4v25.6c0 42.3424-34.4576 76.8-76.8 76.8h-102.4C392.8576 896 358.4 861.5424 358.4 819.2V793.6H179.2C136.8576 793.6 102.4 759.1424 102.4 716.8v-51.2c0-33.3824 21.4016-61.8496 51.2-72.3968V-51.2c0-42.3424 34.4576-76.8 76.8-76.8h512c42.3424 0 76.8 34.4576 76.8 76.8V593.2032c29.7984 10.5472 51.2 39.0144 51.2 72.3968v51.2c0 42.3424-34.4576 76.8-76.8 76.8zM409.6 819.2a25.6 25.6 0 0 0 25.6 25.6h102.4a25.6 25.6 0 0 0 25.6-25.6V793.6H409.6v25.6zM742.4-76.8h-512a25.6 25.6 0 0 0-25.6 25.6V588.8h563.2v-640a25.6 25.6 0 0 0-25.6-25.6zM819.2 665.6a25.6 25.6 0 0 0-25.6-25.6h-614.4a25.6 25.6 0 0 0-25.6 25.6v51.2a25.6 25.6 0 0 0 25.6 25.6h614.4a25.6 25.6 0 0 0 25.6-25.6v-51.2zM640 537.6a25.6 25.6 0 0 1-25.6-25.6v-512a25.6 25.6 0 0 1 51.2 0v512a25.6 25.6 0 0 1-25.6 25.6zM486.4 537.6a25.6 25.6 0 0 1-25.6-25.6v-512a25.6 25.6 0 0 1 51.2 0v512a25.6 25.6 0 0 1-25.6 25.6zM332.8 537.6a25.6 25.6 0 0 1-25.6-25.6v-512a25.6 25.6 0 0 1 51.2 0v512a25.6 25.6 0 0 1-25.6 25.6z"  horiz-adv-x="1024" />

    
    <glyph glyph-name="user" unicode="&#59089;" d="M486.4 332.8C331.1104 332.8 204.8 459.1104 204.8 614.4S331.1104 896 486.4 896 768 769.6896 768 614.4 641.6896 332.8 486.4 332.8z m0 512C359.3728 844.8 256 741.4272 256 614.4S359.3728 384 486.4 384 716.8 487.3728 716.8 614.4 613.4272 844.8 486.4 844.8zM896-128h-819.2C34.4576-128 0-93.5424 0-51.2c0 3.4816 0.7168 86.272 62.72 168.96 36.096 48.128 85.504 86.3744 146.8928 113.6128C284.5696 264.704 377.7024 281.6 486.4 281.6s201.8304-16.896 276.7872-50.2272c61.3888-27.2896 110.7968-65.4848 146.8928-113.6128C972.0832 35.072 972.8-47.7184 972.8-51.2c0-42.3424-34.4576-76.8-76.8-76.8z m-409.6 358.4c-178.5344 0-310.272-48.7936-380.9792-141.1072C52.4288 20.1216 51.2512-50.5856 51.2-51.3024a25.6 25.6 0 0 1 25.6-25.4976h819.2a25.6 25.6 0 0 1 25.6 25.6c0 0.6144-1.1776 71.3216-54.2208 140.4928C796.6208 181.6064 664.8832 230.4 486.4 230.4z"  horiz-adv-x="1024" />

    
    <glyph glyph-name="users" unicode="&#59090;" d="M947.2-25.6h-563.2c-42.3424 0-76.8 34.4576-76.8 76.8 0 2.4576 0.5632 60.928 47.3088 118.528 26.88 33.0752 63.5392 59.2896 108.9536 77.9264 54.8352 22.528 122.88 33.8944 202.1376 33.8944s147.2512-11.4176 202.1376-33.8944c45.4144-18.6368 82.0736-44.8512 108.9536-77.9264 46.7968-57.6 47.3088-116.0704 47.3088-118.528 0-42.3424-34.4576-76.8-76.8-76.8zM358.4 51.0464a25.6 25.6 0 0 1 25.6-25.4464h563.2a25.6 25.6 0 0 1 25.6 25.4464c-0.0512 1.792-1.6384 45.824-37.8368 88.7808-49.8688 59.2384-143.0016 90.5216-269.3632 90.5216s-219.4944-31.3344-269.3632-90.5216c-36.1984-43.008-37.7856-86.9888-37.8368-88.7808zM665.6 332.8c-112.9472 0-204.8 91.8528-204.8 204.8s91.8528 204.8 204.8 204.8 204.8-91.8528 204.8-204.8-91.8528-204.8-204.8-204.8z m0 358.4c-84.6848 0-153.6-68.9152-153.6-153.6s68.9152-153.6 153.6-153.6 153.6 68.9152 153.6 153.6-68.9152 153.6-153.6 153.6zM230.4-25.6h-153.6C34.4576-25.6 0 8.8576 0 51.2c0 1.8944 0.4096 47.4624 33.9456 92.16 19.3536 25.856 45.7728 46.2848 78.4896 60.8256 39.1168 17.408 87.4496 26.2144 143.616 26.2144 9.1648 0 18.2272-0.256 26.9824-0.7168a25.6 25.6 0 0 0-2.7136-51.1488 465.92 465.92 0 0 1-24.2176 0.6144c-199.3728 0-204.6464-121.8048-204.8-128.1536a25.6 25.6 0 0 1 25.6-25.4464h153.6a25.6 25.6 0 0 0 0-51.2zM256 281.6c-84.6848 0-153.6 68.9152-153.6 153.6s68.9152 153.6 153.6 153.6 153.6-68.9152 153.6-153.6-68.9152-153.6-153.6-153.6z m0 256c-56.4736 0-102.4-45.9264-102.4-102.4s45.9264-102.4 102.4-102.4 102.4 45.9264 102.4 102.4-45.9264 102.4-102.4 102.4z"  horiz-adv-x="1024" />

    
    <glyph glyph-name="hyphenate" unicode="&#59091;" d="M658.962963 614.248296V787.076741a17.256296 17.256296 0 0 1-17.521778 17.275259 17.256296 17.256296 0 0 1-17.521778-17.275259v-328.874667c0-28.444444 0.512-57.931852 1.554963-88.936296a741.774222 741.774222 0 0 0-2.578963-95.061334c-1.554963-16.251259-3.602963-32.521481-6.181926-49.303703-3.090963-16.251259-6.712889-33.033481-12.363851-49.303704-5.157926-16.251259-12.382815-32.009481-19.588741-47.786667-8.248889-15.739259-17.009778-30.985481-27.818667-45.226666-10.827852-14.222222-22.167704-27.951407-35.555555-40.656593-6.200889-6.618074-13.406815-12.193185-20.100741-18.299259-3.602963-3.034074-7.205926-5.594074-10.808889-8.647111-3.621926-3.034074-7.224889-5.594074-11.358815-8.135111a391.452444 391.452444 0 0 0-99.953778-50.308741c-35.555556-12.212148-73.197037-20.328296-111.312592-25.41037-19.057778-2.541037-38.115556-4.077037-57.704296-4.589038a271.36 271.36 0 0 0-28.86163 0h-7.205926c-2.597926-0.512-5.157926-1.517037-6.712889-3.546074-3.602963-3.565037-5.669926-8.647111-5.157926-13.217185 0-5.082074 2.578963-9.671111 6.181926-13.217185 3.602963-3.565037 9.291852-4.077037 13.918815-4.077037 9.784889 0 19.076741-1.005037 28.86163-0.493037h14.411851l14.449778 1.005037c9.784889 0.512 19.057778 1.517037 28.842667 2.541037 38.134519 4.077037 75.757037 13.217185 111.824592 24.917333 71.623111 24.38637 138.107259 63.525926 185.514667 117.399704 23.703704 26.94637 41.718519 57.457778 55.637333 88.955259a439.751111 439.751111 0 0 1 28.34963 96.578371c5.669926 32.028444 7.736889 64.037926 7.736889 94.53037V357.072593c2.048 96.06637 1.536 167.74637 1.024 257.194666z m212.309333 14.753185a1601.498074 1601.498074 0 0 1-57.723259 15.73926c-9.784889 2.56-9.784889 13.729185-9.784889 13.729185V757.589333c0 18.811259-29.37363 18.811259-29.373629 0v-84.878222a12.269037 12.269037 0 0 0-5.669926-10.164148 13.520593 13.520593 0 0 0-10.808889-2.541037c-14.430815 4.058074-28.86163 8.135111-42.780445 12.193185-18.033778 5.082074-25.770667-22.376296-7.736889-27.439407 36.086519-10.183111 76.269037-19.835259 112.336593-30.511408-29.88563-10.164148-59.259259-19.816296-89.125926-29.980444v9.140148c0 18.299259-28.880593 18.299259-28.880593 0v-28.975407c0-8.628148 9.291852-16.763259 18.052741-13.710223 11.851852 4.058074 23.703704 8.135111 36.067556 12.193186 0 0 8.229926 2.541037 12.875852-1.517037 5.157926-4.077037 6.181926-8.647111 6.181926-12.212149v-92.501333c0-18.811259 29.37363-18.811259 29.373629 0V570.026667c0.512 3.053037 1.554963 9.671111 9.291852 12.212148 19.057778 6.599111 38.627556 13.217185 57.704296 19.304296 13.387852 4.570074 14.411852 23.381333 0 27.45837zM283.306667 95.800889a425.092741 425.092741 0 0 1 60.302222 32.028444 354.076444 354.076444 0 0 1 53.589333 42.17363 388.001185 388.001185 0 0 1 44.828445 51.351704 371.863704 371.863704 0 0 1 34.512592 58.443852c19.588741 41.168593 31.440593 84.878222 37.622519 129.611851 1.554963 11.188148 2.578963 22.376296 3.090963 33.564445 0 5.575111 0.512 11.169185 1.042963 16.763259v8.628148c0 2.56 0 5.594074-1.042963 8.647111a17.502815 17.502815 0 0 1-13.387852 11.188148 19.190519 19.190519 0 0 1-17.009778-5.082074 15.416889 15.416889 0 0 1-4.114963-8.154074c-0.530963-3.034074-0.530963-5.575111-0.530963-8.628148 0-5.594074 0-11.188148-0.512-16.763259-2.066963-44.73363-9.784889-89.467259-25.239704-131.659852a314.804148 314.804148 0 0 0-29.885629-60.491852 278.983111 278.983111 0 0 0-41.756445-52.849778c-15.966815-15.739259-34.000593-29.980444-52.54637-42.685629-19.076741-12.212148-39.158519-23.381333-59.771259-32.047408-36.086519-15.739259-73.690074-26.927407-112.336593-34.550518-4.645926 0-7.205926 0-12.382815 3.565037-4.114963 3.034074-5.138963 9.140148-5.138963 10.676148v115.882667c0 44.73363-0.512 89.467259-1.554963 134.181926-0.512 44.752593-1.024 89.467259 2.578963 134.200889 2.066963 22.376296 4.114963 44.714667 9.291852 66.578963a383.506963 383.506963 0 0 0 21.105778 63.525925 328.097185 328.097185 0 0 0 77.824 108.790519c32.976593 30.492444 72.647111 54.385778 114.915556 71.149037 42.249481 16.782222 86.565926 26.927407 131.90637 32.540444a768 768 0 0 0 34.000593 3.546075 380.586667 380.586667 0 0 0 34.019555 1.517037c5.669926 0 11.339852-0.493037 17.009778-0.493037a13.615407 13.615407 0 0 1 12.363852 11.188148 19.759407 19.759407 0 0 1-3.090963 16.763259 14.449778 14.449778 0 0 1-7.205926 5.082074c-2.597926 1.024-5.688889 1.024-8.779852 1.517037-91.211852 4.589037-183.447704-15.246222-263.831704-57.419852-40.201481-21.352296-77.293037-48.298667-108.202666-81.332148-30.90963-33.033481-53.589333-72.685037-69.575111-114.87763-15.454815-42.17363-24.215704-86.907259-27.306667-131.640888-1.536-22.376296-1.024-44.73363-1.536-67.090963v-67.090963l0.512-254.672593c0-3.034074-1.042963-7.092148-4.645926-10.657185a16.365037 16.365037 0 0 0-7.717926-4.058074c-11.851852-1.024-23.703704-1.517037-35.555556-1.517037h-11.851851c-4.133926 0-7.736889 0.493037-11.851852 0.493037a14.582519 14.582519 0 0 1-10.827852-5.082074 17.161481 17.161481 0 0 1-3.602963-11.188148 17.635556 17.635556 0 0 1 4.114963-11.188149c2.578963-3.034074 6.181926-5.063111 10.315852-5.575111 8.229926-0.512 15.966815-1.024 24.215703-1.024 10.808889 0 21.636741 0.512 32.464593 1.024 2.048 0 5.669926 0 10.808889-4.589037 3.602963-3.034074 4.133926-7.623111 4.645926-9.652148v-64.549926c0-4.570074 2.066963-9.140148 5.669926-11.681185 3.602963-3.053037 8.248889-3.565037 12.894815-3.565037a17.957926 17.957926 0 0 1 11.832888 6.106074c3.090963 3.546074 3.090963 8.628148 3.090963 12.705185v66.578963c0 3.565037 0 5.594074 3.602963 10.164148 3.602963 4.570074 9.803852 5.082074 9.803852 5.082074a590.696296 590.696296 0 0 1 93.771852 24.405334c3.602963 1.517037 29.392593 9.652148 35.043556 12.193185zM553.339259 724.043852c-1.042963 3.034074-2.085926 6.106074-4.645926 8.135111h-0.512a16.554667 16.554667 0 0 1-12.382814 5.594074 17.256296 17.256296 0 0 1-17.502815-17.294222v-73.178074c0-2.048 0-3.565037 1.024-5.594074 2.578963-7.623111 11.339852-11.700148 19.057777-10.676148a18.62163 18.62163 0 0 1 10.827852 5.594074c3.090963 3.034074 4.114963 7.111111 4.114963 11.188148 0 15.227259 0 30.985481-0.512 45.226666V713.879704c1.042963 4.058074 1.554963 7.111111 0.512 10.164148z m425.623704 43.709629c-5.669926 0-9.291852-1.517037-11.851852-5.082074-2.066963-3.034074-3.090963-7.111111-3.090963-13.729185v-122.993778h-46.383407c-16.497778 0-16.497778-24.917333 0-24.917333h46.383407v-132.664889c0-16.763259 10.296889-18.792296 14.942815-18.792296s14.942815 2.029037 14.942815 18.792296V748.942222c0.512 16.782222-10.296889 18.811259-14.942815 18.811259z m234.477037-74.202074c-4.645926 0-14.961778-2.048-14.961778-18.811259v-113.853629c0-12.193185-2.066963-22.869333-6.181926-32.028445a76.041481 76.041481 0 0 0-15.966815-22.869333 70.542222 70.542222 0 0 0-21.655703-13.729185c-16.497778-6.599111-32.976593-5.594074-46.895408-1.517037a49.152 49.152 0 0 0-19.569777 10.676148c-5.669926 4.570074-9.784889 11.188148-12.894815 19.816296-3.090963 8.647111-4.626963 19.323259-4.626963 31.516444v121.988741c0 6.599111-1.024 10.676148-3.090963 13.729185-2.578963 3.546074-6.693926 5.082074-11.851852 5.082074-5.669926 0-9.291852-1.517037-11.851852-5.082074-2.066963-3.053037-3.090963-7.130074-3.090963-13.729185v-130.635852c0-14.734222 2.578963-27.439407 7.205926-38.627555 5.157926-10.676148 11.851852-19.816296 20.100741-26.434371 8.248889-6.599111 17.521778-11.681185 28.349629-15.246222 10.296889-3.034074 21.636741-5.082074 32.464593-5.082074 19.057778 0 36.067556 5.082074 49.967407 15.758222a99.479704 99.479704 0 0 1 21.655704 22.376297v-32.540445c0-9.671111-2.066963-18.299259-6.181926-25.92237-4.133926-7.623111-9.291852-13.729185-15.985778-18.811259s-14.942815-9.140148-24.727703-12.193186a123.06963 123.06963 0 0 0-31.440593-5.082074h-2.048c-9.803852 0-20.100741 1.517037-30.416592 5.082074-10.808889 3.565037-19.569778 8.135111-26.263704 13.729186-4.645926 4.551111-9.803852 7.111111-14.961778 7.111111-3.602963 0-6.693926-1.517037-8.741926-4.570074-1.554963-2.541037-3.109926-5.082074-3.602963-7.623112a16.156444 16.156444 0 0 1 0.493037-8.647111 12.136296 12.136296 0 0 1 6.200889-7.111111c11.320889-8.154074 23.172741-14.753185 35.024593-18.811259a133.783704 133.783704 0 0 1 42.268444-6.599111c17.521778 0 32.976593 2.029037 46.364445 6.599111a101.110519 101.110519 0 0 1 34.531555 18.299259 89.315556 89.315556 0 0 1 21.636741 28.463408 94.056296 94.056296 0 0 1 7.205926 36.086518V673.716148c-1.517037 17.787259-11.832889 19.835259-16.478815 19.835259z m241.664-27.951407a90.453333 90.453333 0 0 1-34.019556 23.36237 105.813333 105.813333 0 0 1-38.115555 7.130074h-2.597926c-10.296889 0-20.100741-1.517037-29.354667-5.082074a90.036148 90.036148 0 0 1-23.703703-13.729185c-6.712889-5.594074-12.894815-12.193185-18.052741-19.323259-1.024-1.005037-1.536-2.541037-2.56-3.546074v20.328296c0 16.763259-10.315852 18.811259-14.942815 18.811259-4.645926 0-14.942815-2.048-14.942815-18.811259v-271.928889c0-16.782222 10.808889-18.811259 15.454815-18.811259 4.626963 0 15.454815 2.029037 15.454815 18.811259v84.385185c6.181926-9.159111 13.918815-17.294222 22.679704-23.893333 13.387852-10.676148 31.42163-15.758222 53.077333-15.758222 15.454815 0 29.354667 3.034074 42.249481 9.140148a95.383704 95.383704 0 0 1 32.976593 25.92237c9.272889 10.676148 16.497778 23.893333 21.124741 39.139556 5.157926 14.734222 7.205926 31.516444 7.205926 48.791704 0 20.859259-3.090963 39.632593-8.741926 55.409777a124.662519 124.662519 0 0 1-23.191704 39.632593z m0-95.573333c0-14.222222-2.066963-27.439407-5.157926-38.627556a102.627556 102.627556 0 0 0-14.942815-29.980444c-6.181926-8.154074-14.430815-14.753185-24.215703-19.32326-9.803852-4.570074-20.612741-6.599111-32.464593-6.599111a59.543704 59.543704 0 0 0-27.83763 7.111111 71.566222 71.566222 0 0 0-22.66074 20.328297 97.678222 97.678222 0 0 0-15.454815 29.999407 123.562667 123.562667 0 0 0-5.688889 36.598519c0 12.705185 1.554963 25.41037 5.157926 37.091555 3.090963 11.700148 8.248889 22.376296 14.430815 31.516445a69.252741 69.252741 0 0 0 22.679703 21.352296c8.760889 5.082074 19.057778 7.623111 30.39763 7.623111 13.406815 0 25.258667-2.541037 35.043556-7.111111 9.784889-4.589037 17.521778-11.700148 23.703703-19.835259 6.181926-8.628148 10.808889-18.792296 13.387852-31.004445 2.085926-11.681185 3.602963-24.89837 3.602963-39.139555z m243.218963 104.201481a75.624296 75.624296 0 0 1-26.794667 16.270222c-18.564741 6.106074-40.201481 7.111111-59.771259 1.005037a115.977481 115.977481 0 0 1-24.234667-10.657185c-7.205926-4.589037-13.899852-9.671111-19.057777-15.265185-1.554963-1.517037-2.578963-2.541037-3.602963-4.058074V768.265481c0 6.599111-1.042963 10.676148-2.578963 13.729186-1.554963 2.541037-4.645926 5.082074-11.851852 5.082074-5.157926 0-9.291852-1.517037-11.851852-5.082074-2.578963-3.053037-3.602963-7.623111-3.602963-13.729186v-299.899259c0-16.763259 10.296889-18.792296 14.942815-18.792296 4.626963 0 14.942815 2.029037 14.942815 18.792296v134.200889c0 10.676148 2.048 19.816296 6.693926 27.951408 4.645926 8.135111 10.296889 15.246222 17.521777 20.328296 7.205926 5.594074 14.942815 9.671111 23.191704 12.705185a72.210963 72.210963 0 0 0 47.407407 0.512c6.693926-2.029037 12.894815-6.106074 18.014815-11.188148 5.176889-5.082074 8.779852-12.193185 11.870815-20.328296 2.578963-8.628148 4.114963-19.304296 4.114963-32.009482v-131.659852c0-6.599111 1.042963-10.676148 3.090963-13.710222 2.578963-3.565037 6.712889-5.082074 11.851852-5.082074 5.688889 0 9.291852 1.517037 11.851852 5.082074 2.066963 3.034074 3.090963 7.111111 3.090963 13.710222v140.288c0 14.753185-2.048 27.45837-6.693926 38.627556-5.157926 10.164148-10.808889 19.323259-18.545778 26.43437z m261.764741-168.751407a11.681185 11.681185 0 0 1-9.272889 0c-3.090963-1.005037-6.181926-3.034074-9.291852-7.111111-8.741926-10.164148-19.057778-17.275259-29.354667-20.840297-10.808889-3.565037-24.215704-5.594074-39.158518-5.594074-10.808889 0-21.124741 2.541037-30.416593 8.135111a79.056593 79.056593 0 0 0-23.703704 21.352297 100.996741 100.996741 0 0 0-15.454814 29.468444 106.761481 106.761481 0 0 0-5.138963 27.97037h145.313185c9.272889 0 15.454815 2.541037 19.057778 7.111112 3.090963 4.570074 4.645926 11.681185 4.645926 22.376296a154.927407 154.927407 0 0 1-5.688889 40.656592 101.394963 101.394963 0 0 1-16.990815 35.081482c-7.736889 10.145185-18.033778 18.280296-29.88563 24.38637-12.363852 6.087111-26.282667 9.140148-42.780444 9.140148-16.990815 0-32.464593-3.546074-45.852445-11.188148-12.894815-7.111111-23.703704-16.763259-32.464592-28.956444a129.137778 129.137778 0 0 1-19.057778-40.675556c-4.133926-15.246222-6.712889-30.492444-6.712889-46.250666 0-15.246222 2.066963-30.492444 6.181926-45.226667a131.792593 131.792593 0 0 1 19.076741-40.163556 102.058667 102.058667 0 0 1 32.464592-28.463407c12.894815-7.111111 28.330667-10.676148 45.852445-10.676148 14.942815 0 28.86163 1.517037 40.201481 5.082074a150.471111 150.471111 0 0 1 29.88563 12.193185c8.248889 4.589037 14.411852 10.183111 19.057778 15.265185 4.645926 6.087111 7.205926 10.164148 7.205926 14.222223a11.567407 11.567407 0 0 1-2.048 7.111111c-1.024 2.541037-3.090963 4.077037-5.669926 5.594074z m-89.656889 164.693333c13.918815 0 25.239704-2.541037 34.000592-8.154074 8.760889-5.575111 15.473778-12.705185 20.612741-21.333333 5.157926-8.647111 8.760889-18.811259 10.315852-29.487408 1.536-9.652148 2.578963-18.792296 2.578963-27.951407h-140.174222a160.805926 160.805926 0 0 0 3.602963 24.917333 102.627556 102.627556 0 0 0 12.382815 29.980445c5.669926 9.159111 13.387852 16.782222 22.66074 23.381333a67.508148 67.508148 0 0 0 34.019556 8.647111z m295.784296 6.618074a81.445926 81.445926 0 0 1-26.794667 15.227259 99.84 99.84 0 0 1-59.790222 0.512 115.977481 115.977481 0 0 1-24.215703-10.676148c-7.205926-4.570074-13.899852-9.671111-19.057778-15.246222-1.554963-1.517037-2.578963-2.541037-3.602963-4.058074v11.681185c0 6.618074-1.042963 10.676148-2.578963 13.729185-1.554963 2.541037-4.645926 5.082074-11.851852 5.082074-5.688889 0-9.291852-1.517037-11.851852-5.082074-2.578963-3.053037-3.602963-7.623111-3.602963-13.729185V468.385185c0-16.763259 10.296889-18.792296 14.942815-18.792296 4.626963 0 14.942815 2.029037 14.942815 18.792296v137.746963c0 10.676148 2.048 19.835259 6.693926 27.458371a71.49037 71.49037 0 0 0 17.521777 19.816296c7.205926 5.082074 14.942815 9.159111 23.191704 11.700148a79.416889 79.416889 0 0 0 47.407408 0.493037c6.693926-2.029037 12.875852-5.575111 18.014814-10.164148 5.157926-4.551111 8.779852-11.188148 11.358815-19.304296 2.56-8.647111 4.114963-19.323259 4.114963-32.028445v-135.205926c0-6.599111 1.024-10.676148 3.090963-13.710222 2.578963-3.565037 6.693926-5.082074 11.851852-5.082074s9.291852 1.517037 11.851852 5.082074c2.066963 3.034074 3.090963 7.111111 3.090963 13.710222v143.853037c0 14.734222-2.066963 27.439407-6.693926 38.115556a63.848296 63.848296 0 0 1-18.033778 25.92237z m261.233778 16.763259c-4.626963 0-14.923852-2.048-14.923852-18.811259v-20.328296c-1.042963 1.517037-1.554963 2.541037-2.578963 3.546074-5.157926 7.130074-10.808889 13.729185-18.033778 19.323259a90.036148 90.036148 0 0 1-23.703703 13.729185 81.123556 81.123556 0 0 1-29.37363 5.082074h-2.578963a105.813333 105.813333 0 0 1-38.115556-7.130074 90.453333 90.453333 0 0 1-34.019555-23.381333c-9.803852-10.657185-17.521778-23.893333-23.191704-39.632593-5.669926-15.758222-8.760889-34.569481-8.760889-55.409777 0-17.275259 2.578963-34.057481 7.205926-48.791704 5.157926-14.734222 11.851852-27.951407 21.143704-39.139556 9.272889-10.676148 20.100741-19.816296 32.976593-25.92237a96.805926 96.805926 0 0 1 42.249481-9.140148c21.124741 0 39.158519 5.082074 52.565333 15.739259 8.760889 6.618074 16.497778 14.753185 23.172741 24.405333v-18.811259c0-16.763259 10.827852-18.792296 15.473778-18.792296 4.626963 0 15.454815 2.029037 15.454815 18.792296V674.740148c0 16.763259-10.315852 18.811259-14.942815 18.811259z m-86.546963-218.074074a84.650667 84.650667 0 0 0-32.995556 6.637037 67.034074 67.034074 0 0 0-23.703703 19.304297 78.506667 78.506667 0 0 0-14.942815 29.980444c-3.602963 11.700148-5.138963 24.405333-5.138963 38.627556s1.536 27.45837 4.114963 39.139555c2.578963 11.700148 7.205926 22.376296 13.406815 31.004445a59.600593 59.600593 0 0 0 23.703703 19.835259c9.784889 4.551111 21.124741 7.111111 35.024593 7.111111 11.339852 0 21.655704-2.541037 30.416593-7.623111 8.760889-5.082074 16.497778-12.193185 22.66074-21.352296 6.181926-9.140148 11.339852-19.816296 14.430815-31.516445 3.090963-11.681185 5.157926-24.38637 5.157926-37.091555 0-12.705185-1.554963-25.41037-4.645926-37.110519a95.004444 95.004444 0 0 0-13.387852-29.999407 63.393185 63.393185 0 0 0-22.167703-19.816297 71.964444 71.964444 0 0 0-31.93363-7.111111z m285.980444 14.753186a9.860741 9.860741 0 0 1-7.717926 0.512 39.063704 39.063704 0 0 1-7.736888-3.053038c-2.578963-1.517037-5.157926-2.541037-7.736889-3.565037-4.626963-2.029037-9.272889-3.546074-13.899852-5.082074-4.133926-1.517037-10.315852-2.029037-17.521778-2.029037-10.315852 0-17.521778 2.029037-21.655704 6.106074a29.392593 29.392593 0 0 0-9.272889 15.246223 58.04563 58.04563 0 0 0-2.048 21.352296c0.512 8.135111 0.512 16.251259 0.512 23.381333v113.85363h68.532149c6.181926 0 10.808889 1.005037 14.411851 2.541037 2.597926 1.005037 7.224889 4.570074 7.224889 12.705185 0 8.135111-4.626963 13.217185-12.363852 13.729185-5.669926 0.493037-12.894815 1.005037-21.63674 1.005037h-56.168297v36.598519c0 6.106074-0.512 10.676148-2.578963 13.217185-2.066963 3.565037-6.181926 5.594074-12.363851 5.594074-7.205926 0-10.808889-3.034074-12.363852-5.594074-2.085926-3.034074-3.090963-7.623111-3.090963-13.729185v-36.086519h-20.100741c-17.009778 0-18.564741-10.164148-18.564741-14.734222s2.085926-14.734222 18.564741-14.734222h20.100741v-144.365037c0-22.376296 5.650963-38.627556 15.966815-48.279704 10.808889-9.671111 24.727704-14.734222 42.249481-14.734222a113.588148 113.588148 0 0 1 21.636741 2.541037c7.205926 1.517037 13.918815 3.546074 20.100741 6.087111 6.181926 2.541037 11.339852 6.106074 14.942814 9.671111 4.645926 4.058074 6.712889 8.628148 6.712889 13.198222 0 4.077037-1.042963 7.130074-4.133926 8.647112z m230.855111 9.652148a13.046519 13.046519 0 0 1-6.181925 5.594074 11.681185 11.681185 0 0 1-9.291852 0c-3.072-1.005037-6.162963-3.034074-9.253926-7.111111-8.760889-10.164148-19.076741-17.275259-29.392593-20.840297-10.808889-3.565037-24.196741-5.594074-39.139555-5.594074a58.007704 58.007704 0 0 0-30.416593 8.135111 79.056593 79.056593 0 0 0-23.703704 21.352297 100.996741 100.996741 0 0 0-15.454814 29.468444 106.761481 106.761481 0 0 0-5.157926 27.97037h145.313185c9.291852 0 15.473778 2.541037 19.076741 7.111112 3.090963 4.570074 4.626963 11.681185 4.626962 22.376296a154.927407 154.927407 0 0 1-5.650962 40.656592 101.394963 101.394963 0 0 1-17.009778 35.081482c-7.736889 10.145185-18.033778 18.280296-29.88563 24.38637-12.363852 6.087111-26.282667 9.140148-42.780444 9.140148-16.990815 0-32.464593-3.546074-45.852445-11.188148-12.894815-7.111111-23.703704-16.763259-32.464592-28.956444a129.137778 129.137778 0 0 1-19.076741-40.675556c-4.114963-15.246222-6.693926-30.492444-6.693926-46.250666 0-15.246222 2.066963-30.492444 6.181926-45.226667a131.792593 131.792593 0 0 1 19.076741-40.163556 102.058667 102.058667 0 0 1 32.464592-28.463407c12.875852-7.111111 28.330667-10.676148 45.852445-10.676148 14.942815 0 28.86163 1.517037 40.201481 5.082074a150.471111 150.471111 0 0 1 29.88563 12.193185c8.248889 4.589037 14.411852 10.183111 19.057778 15.265185 4.645926 6.087111 7.205926 10.164148 7.205925 14.222223 0.530963 2.029037 0 4.570074-1.517037 7.111111z m-95.326814 170.287407c13.918815 0 25.239704-2.541037 34.000592-8.154074 8.760889-5.575111 15.473778-12.705185 20.612741-21.333333 5.157926-8.647111 8.760889-18.811259 10.315852-29.487408 1.536-9.652148 2.578963-18.792296 2.578963-27.951407h-140.174222a160.805926 160.805926 0 0 0 3.602963 24.917333 102.608593 102.608593 0 0 0 12.382814 29.980445c5.669926 9.159111 13.387852 16.782222 22.660741 23.381333 9.291852 5.594074 20.612741 8.647111 34.019556 8.647111z"  horiz-adv-x="2863" />

    


  </font>
</defs>
</svg>
